<svg xmlns="http://www.w3.org/2000/svg" xmlns:xlink="http://www.w3.org/1999/xlink" version="1.1" width="256" height="256" viewBox="0 0 256 256" xml:space="preserve">

<defs>
</defs>
<g style="stroke: none; stroke-width: 0; stroke-dasharray: none; stroke-linecap: butt; stroke-linejoin: miter; stroke-miterlimit: 10; fill: none; fill-rule: nonzero; opacity: 1;" transform="translate(1.4065934065934016 1.4065934065934016) scale(2.81 2.81)" >
	<path d="M 71.742 28.05 H 70.12 C 68.603 15.52 57.939 5.809 45 5.809 S 21.397 15.52 19.88 28.05 h -1.623 C 8.174 28.05 0 36.224 0 46.307 v 0 c 0 10.083 8.174 18.258 18.258 18.258 h 53.485 C 81.826 64.565 90 56.391 90 46.307 v 0 C 90 36.224 81.826 28.05 71.742 28.05 z" style="stroke: none; stroke-width: 1; stroke-dasharray: none; stroke-linecap: butt; stroke-linejoin: miter; stroke-miterlimit: 10; fill: rgb(201,207,212); fill-rule: nonzero; opacity: 1;" transform=" matrix(1 0 0 1 0 0) " stroke-linecap="round" />
	<path d="M 45 54.291 c -0.552 0 -1 -0.447 -1 -1 V 37.273 c 0 -0.552 0.448 -1 1 -1 s 1 0.448 1 1 v 16.018 C 46 53.844 45.552 54.291 45 54.291 z" style="stroke: none; stroke-width: 1; stroke-dasharray: none; stroke-linecap: butt; stroke-linejoin: miter; stroke-miterlimit: 10; fill: rgb(240,240,240); fill-rule: nonzero; opacity: 1;" transform=" matrix(1 0 0 1 0 0) " stroke-linecap="round" />
	<path d="M 53.847 54.291 c -0.553 0 -1 -0.447 -1 -1 v -6.699 c 0 -0.306 0.14 -0.595 0.38 -0.785 l 4.935 -3.897 v -4.637 c 0 -0.552 0.447 -1 1 -1 s 1 0.448 1 1 v 5.121 c 0 0.306 -0.14 0.595 -0.38 0.785 l -4.935 3.897 v 6.215 C 54.847 53.844 54.399 54.291 53.847 54.291 z" style="stroke: none; stroke-width: 1; stroke-dasharray: none; stroke-linecap: butt; stroke-linejoin: miter; stroke-miterlimit: 10; fill: rgb(240,240,240); fill-rule: nonzero; opacity: 1;" transform=" matrix(1 0 0 1 0 0) " stroke-linecap="round" />
	<path d="M 36.153 54.291 c -0.552 0 -1 -0.447 -1 -1 v -6.215 l -4.933 -3.897 c -0.24 -0.189 -0.38 -0.479 -0.38 -0.785 v -5.121 c 0 -0.552 0.448 -1 1 -1 s 1 0.448 1 1 v 4.637 l 4.933 3.897 c 0.24 0.189 0.38 0.479 0.38 0.785 v 6.699 C 37.153 53.844 36.705 54.291 36.153 54.291 z" style="stroke: none; stroke-width: 1; stroke-dasharray: none; stroke-linecap: butt; stroke-linejoin: miter; stroke-miterlimit: 10; fill: rgb(240,240,240); fill-rule: nonzero; opacity: 1;" transform=" matrix(1 0 0 1 0 0) " stroke-linecap="round" />
	<circle cx="59.159" cy="34.649" r="4.009" style="stroke: none; stroke-width: 1; stroke-dasharray: none; stroke-linecap: butt; stroke-linejoin: miter; stroke-miterlimit: 10; fill: rgb(247,191,80); fill-rule: nonzero; opacity: 1;" transform="  matrix(1 0 0 1 0 0) "/>
	<circle cx="44.999" cy="34.649" r="4.009" style="stroke: none; stroke-width: 1; stroke-dasharray: none; stroke-linecap: butt; stroke-linejoin: miter; stroke-miterlimit: 10; fill: rgb(126,198,197); fill-rule: nonzero; opacity: 1;" transform="  matrix(1 0 0 1 0 0) "/>
	<circle cx="30.839" cy="34.649" r="4.009" style="stroke: none; stroke-width: 1; stroke-dasharray: none; stroke-linecap: butt; stroke-linejoin: miter; stroke-miterlimit: 10; fill: rgb(241,123,123); fill-rule: nonzero; opacity: 1;" transform="  matrix(1 0 0 1 0 0) "/>
	<path d="M 56.967 84.191 H 33.033 c -2.34 0 -4.236 -1.897 -4.236 -4.236 V 56.021 c 0 -2.34 1.897 -4.236 4.236 -4.236 h 23.934 c 2.34 0 4.236 1.897 4.236 4.236 v 23.934 C 61.203 82.295 59.307 84.191 56.967 84.191 z" style="stroke: none; stroke-width: 1; stroke-dasharray: none; stroke-linecap: butt; stroke-linejoin: miter; stroke-miterlimit: 10; fill: rgb(247,191,80); fill-rule: nonzero; opacity: 1;" transform=" matrix(1 0 0 1 0 0) " stroke-linecap="round" />
	<path d="M 41.251 60.383 h -2.503 c -2.122 0 -3.848 1.727 -3.848 3.849 v 10.362 c 0 0.553 0.448 1 1 1 s 1 -0.447 1 -1 v -5.605 h 6.2 v 5.605 c 0 0.553 0.448 1 1 1 s 1 -0.447 1 -1 V 64.231 C 45.099 62.109 43.373 60.383 41.251 60.383 z M 36.899 66.988 v -2.757 c 0 -1.02 0.829 -1.849 1.848 -1.849 h 2.503 c 1.019 0 1.848 0.829 1.848 1.849 v 2.757 H 36.899 z" style="stroke: none; stroke-width: 1; stroke-dasharray: none; stroke-linecap: butt; stroke-linejoin: miter; stroke-miterlimit: 10; fill: rgb(193,132,45); fill-rule: nonzero; opacity: 1;" transform=" matrix(1 0 0 1 0 0) " stroke-linecap="round" />
	<path d="M 54.101 73.594 h -1.708 V 62.383 h 1.708 c 0.553 0 1 -0.447 1 -1 s -0.447 -1 -1 -1 h -5.416 c -0.553 0 -1 0.447 -1 1 s 0.447 1 1 1 h 1.708 v 11.211 h -1.708 c -0.553 0 -1 0.447 -1 1 s 0.447 1 1 1 h 5.416 c 0.553 0 1 -0.447 1 -1 S 54.653 73.594 54.101 73.594 z" style="stroke: none; stroke-width: 1; stroke-dasharray: none; stroke-linecap: butt; stroke-linejoin: miter; stroke-miterlimit: 10; fill: rgb(193,132,45); fill-rule: nonzero; opacity: 1;" transform=" matrix(1 0 0 1 0 0) " stroke-linecap="round" />
</g>
</svg>