<svg xmlns="http://www.w3.org/2000/svg" xmlns:xlink="http://www.w3.org/1999/xlink" version="1.1" width="256" height="256" viewBox="0 0 256 256" xml:space="preserve">

<defs>
</defs>
<g style="stroke: none; stroke-width: 0; stroke-dasharray: none; stroke-linecap: butt; stroke-linejoin: miter; stroke-miterlimit: 10; fill: none; fill-rule: nonzero; opacity: 1;" transform="translate(1.4065934065934016 1.4065934065934016) scale(2.81 2.81)" >
	<path d="M 30.028 11.194 l -5.878 -1.192 l -2.455 -2.376 c -1.097 -0.851 -2.462 -1.306 -3.851 -1.298 c -1.934 0.019 -4.66 -0.267 -6.123 -0.09 c -0.013 0.001 -0.026 -0.002 -0.039 0.001 c -0.005 0.001 -0.009 0.005 -0.014 0.006 C 9.006 6.574 7 7.272 5.202 8.708 C 5.191 8.716 5.181 8.724 5.17 8.733 C 4.948 8.911 4.729 9.097 4.513 9.299 L 0.874 9.87 c -0.59 0.092 -1.019 0.593 -1.019 1.191 v 3.327 c 0 0.464 0.271 0.892 0.69 1.09 l 2.609 1.234 c 0.327 1.462 1.633 2.56 3.193 2.56 c 1.528 0 2.811 -1.053 3.17 -2.471 h 12.482 c 0.359 1.417 1.642 2.471 3.17 2.471 c 1.528 0 2.811 -1.053 3.17 -2.471 h 1.642 c 0.657 0 1.192 -0.534 1.192 -1.192 v -3.015 C 31.172 11.917 30.691 11.329 30.028 11.194 z" style="stroke: none; stroke-width: 1; stroke-dasharray: none; stroke-linecap: butt; stroke-linejoin: miter; stroke-miterlimit: 10; fill: rgb(201,207,212); fill-rule: nonzero; opacity: 1;" transform=" matrix(2.81 0 0 2.81 1.4065934065934016 1.4065934065934016) " stroke-linecap="round" />
	<path d="M 25.168 19.627 c -1.567 0 -2.942 -1.003 -3.436 -2.471 H 9.782 c -0.494 1.468 -1.869 2.471 -3.436 2.471 c -1.624 0 -3.067 -1.111 -3.497 -2.666 l -2.457 -1.162 c -0.543 -0.257 -0.894 -0.811 -0.894 -1.412 v -3.327 c 0 -0.774 0.555 -1.423 1.32 -1.542 l 3.531 -0.554 C 4.53 8.8 4.726 8.633 4.947 8.456 c 0.015 -0.013 0.036 -0.029 0.058 -0.044 c 1.749 -1.399 3.726 -2.158 6.579 -2.515 c 0.01 -0.003 0.019 -0.005 0.028 -0.007 c 0.035 -0.007 0.065 -0.008 0.091 -0.008 c 0.903 -0.107 2.212 -0.047 3.597 0.016 c 0.875 0.04 1.779 0.082 2.541 0.074 c 0.012 0 0.024 0 0.036 0 c 1.462 0 2.893 0.487 4.036 1.373 c 0.01 0.008 0.02 0.016 0.03 0.025 l 2.381 2.303 l 5.776 1.171 h 0 c 0.828 0.168 1.429 0.903 1.429 1.748 v 3.015 c 0 0.853 -0.694 1.548 -1.548 1.548 h -1.377 C 28.11 18.624 26.735 19.627 25.168 19.627 z M 9.516 16.445 h 12.482 c 0.163 0 0.305 0.111 0.345 0.268 c 0.329 1.297 1.49 2.202 2.825 2.202 s 2.496 -0.906 2.825 -2.202 c 0.04 -0.158 0.182 -0.268 0.345 -0.268 h 1.642 c 0.461 0 0.836 -0.375 0.836 -0.836 v -3.015 c 0 -0.508 -0.361 -0.95 -0.859 -1.051 c 0 0 0 0 0 0 l -5.878 -1.192 c -0.066 -0.014 -0.128 -0.046 -0.177 -0.093 l -2.441 -2.362 c -1.016 -0.782 -2.286 -1.212 -3.583 -1.212 c -0.011 0 -0.022 0 -0.032 0 c -0.782 0.01 -1.694 -0.034 -2.579 -0.074 c -1.304 -0.06 -2.653 -0.121 -3.503 -0.018 c -0.006 0.001 -0.014 0.001 -0.023 0.002 c -0.01 0.002 -0.02 0.004 -0.03 0.005 C 8.976 6.936 7.096 7.65 5.425 8.986 L 5.17 8.733 L 5.393 9.01 c -0.24 0.193 -0.449 0.373 -0.637 0.549 C 4.704 9.608 4.638 9.64 4.568 9.651 L 0.93 10.221 c -0.416 0.065 -0.718 0.418 -0.718 0.839 v 3.327 c 0 0.327 0.191 0.629 0.486 0.769 l 2.609 1.234 c 0.099 0.047 0.171 0.137 0.195 0.244 c 0.295 1.322 1.492 2.281 2.845 2.281 c 1.335 0 2.496 -0.906 2.825 -2.202 C 9.212 16.555 9.354 16.445 9.516 16.445 z" style="stroke: none; stroke-width: 1; stroke-dasharray: none; stroke-linecap: butt; stroke-linejoin: miter; stroke-miterlimit: 10; fill: rgb(0,0,0); fill-rule: nonzero; opacity: 1;" transform=" matrix(2.81 0 0 2.81 1.4065934065934016 1.4065934065934016) " stroke-linecap="round" />
	<path d="M 45.076 45.102 c -0.552 0 -1 -0.448 -1 -1 V 32.682 c 0 -0.552 0.448 -1 1 -1 s 1 0.448 1 1 v 11.419 C 46.076 44.654 45.628 45.102 45.076 45.102 z" style="stroke: none; stroke-width: 1; stroke-dasharray: none; stroke-linecap: butt; stroke-linejoin: miter; stroke-miterlimit: 10; fill: rgb(0,0,0); fill-rule: nonzero; opacity: 1;" transform=" matrix(1 0 0 1 0 0) " stroke-linecap="round" />
	<path d="M 52.37 45.102 c -0.553 0 -1 -0.448 -1 -1 v -5.385 c 0 -0.306 0.14 -0.595 0.38 -0.785 l 4.001 -3.161 v -2.089 c 0 -0.552 0.447 -1 1 -1 s 1 0.448 1 1 v 2.573 c 0 0.306 -0.14 0.595 -0.38 0.785 l -4.001 3.161 v 4.901 C 53.37 44.654 52.923 45.102 52.37 45.102 z" style="stroke: none; stroke-width: 1; stroke-dasharray: none; stroke-linecap: butt; stroke-linejoin: miter; stroke-miterlimit: 10; fill: rgb(0,0,0); fill-rule: nonzero; opacity: 1;" transform=" matrix(1 0 0 1 0 0) " stroke-linecap="round" />
	<path d="M 37.782 45.102 c -0.552 0 -1 -0.448 -1 -1 v -4.901 l -4.001 -3.161 c -0.24 -0.189 -0.38 -0.479 -0.38 -0.785 v -2.573 c 0 -0.552 0.448 -1 1 -1 s 1 0.448 1 1 v 2.089 l 4.001 3.161 c 0.24 0.189 0.38 0.479 0.38 0.785 v 5.385 C 38.782 44.654 38.334 45.102 37.782 45.102 z" style="stroke: none; stroke-width: 1; stroke-dasharray: none; stroke-linecap: butt; stroke-linejoin: miter; stroke-miterlimit: 10; fill: rgb(0,0,0); fill-rule: nonzero; opacity: 1;" transform=" matrix(1 0 0 1 0 0) " stroke-linecap="round" />
	<circle cx="56.755" cy="28.875" r="3.305" style="stroke: none; stroke-width: 1; stroke-dasharray: none; stroke-linecap: butt; stroke-linejoin: miter; stroke-miterlimit: 10; fill: rgb(247,191,80); fill-rule: nonzero; opacity: 1;" transform="  matrix(1 0 0 1 0 0) "/>
	<path d="M 56.751 33.177 c -2.374 0 -4.305 -1.931 -4.305 -4.305 s 1.931 -4.306 4.305 -4.306 s 4.306 1.932 4.306 4.306 S 59.125 33.177 56.751 33.177 z M 56.751 26.566 c -1.271 0 -2.305 1.034 -2.305 2.306 c 0 1.271 1.034 2.305 2.305 2.305 c 1.271 0 2.306 -1.034 2.306 -2.305 C 59.057 27.601 58.022 26.566 56.751 26.566 z" style="stroke: none; stroke-width: 1; stroke-dasharray: none; stroke-linecap: butt; stroke-linejoin: miter; stroke-miterlimit: 10; fill: rgb(0,0,0); fill-rule: nonzero; opacity: 1;" transform=" matrix(1 0 0 1 0 0) " stroke-linecap="round" />
	<circle cx="45.075" cy="28.875" r="3.305" style="stroke: none; stroke-width: 1; stroke-dasharray: none; stroke-linecap: butt; stroke-linejoin: miter; stroke-miterlimit: 10; fill: rgb(126,198,197); fill-rule: nonzero; opacity: 1;" transform="  matrix(1 0 0 1 0 0) "/>
	<path d="M 45.076 33.177 c -2.374 0 -4.305 -1.931 -4.305 -4.305 s 1.931 -4.306 4.305 -4.306 s 4.306 1.932 4.306 4.306 S 47.45 33.177 45.076 33.177 z M 45.076 26.566 c -1.271 0 -2.305 1.034 -2.305 2.306 c 0 1.271 1.034 2.305 2.305 2.305 c 1.271 0 2.306 -1.034 2.306 -2.305 C 47.382 27.601 46.348 26.566 45.076 26.566 z" style="stroke: none; stroke-width: 1; stroke-dasharray: none; stroke-linecap: butt; stroke-linejoin: miter; stroke-miterlimit: 10; fill: rgb(0,0,0); fill-rule: nonzero; opacity: 1;" transform=" matrix(1 0 0 1 0 0) " stroke-linecap="round" />
	<circle cx="33.405" cy="28.875" r="3.305" style="stroke: none; stroke-width: 1; stroke-dasharray: none; stroke-linecap: butt; stroke-linejoin: miter; stroke-miterlimit: 10; fill: rgb(241,123,123); fill-rule: nonzero; opacity: 1;" transform="  matrix(1 0 0 1 0 0) "/>
	<path d="M 33.401 33.177 c -2.374 0 -4.305 -1.931 -4.305 -4.305 s 1.931 -4.306 4.305 -4.306 s 4.306 1.932 4.306 4.306 S 35.775 33.177 33.401 33.177 z M 33.401 26.566 c -1.271 0 -2.305 1.034 -2.305 2.306 c 0 1.271 1.034 2.305 2.305 2.305 c 1.271 0 2.306 -1.034 2.306 -2.305 C 35.707 27.601 34.672 26.566 33.401 26.566 z" style="stroke: none; stroke-width: 1; stroke-dasharray: none; stroke-linecap: butt; stroke-linejoin: miter; stroke-miterlimit: 10; fill: rgb(0,0,0); fill-rule: nonzero; opacity: 1;" transform=" matrix(1 0 0 1 0 0) " stroke-linecap="round" />
	<path d="M 54.942 71.227 H 35.21 c -1.929 0 -3.493 -1.564 -3.493 -3.493 V 48.001 c 0 -1.929 1.564 -3.493 3.493 -3.493 h 19.733 c 1.929 0 3.493 1.564 3.493 3.493 v 19.733 C 58.435 69.663 56.871 71.227 54.942 71.227 z" style="stroke: none; stroke-width: 1; stroke-dasharray: none; stroke-linecap: butt; stroke-linejoin: miter; stroke-miterlimit: 10; fill: rgb(247,191,80); fill-rule: nonzero; opacity: 1;" transform=" matrix(1 0 0 1 0 0) " stroke-linecap="round" />
	<path d="M 54.942 72.227 H 35.21 c -2.478 0 -4.493 -2.016 -4.493 -4.492 V 48.001 c 0 -2.477 2.016 -4.493 4.493 -4.493 h 19.732 c 2.478 0 4.493 2.016 4.493 4.493 v 19.733 C 59.436 70.211 57.42 72.227 54.942 72.227 z M 35.21 45.508 c -1.375 0 -2.493 1.119 -2.493 2.493 v 19.733 c 0 1.374 1.119 2.492 2.493 2.492 h 19.732 c 1.375 0 2.493 -1.118 2.493 -2.492 V 48.001 c 0 -1.374 -1.118 -2.493 -2.493 -2.493 H 35.21 z" style="stroke: none; stroke-width: 1; stroke-dasharray: none; stroke-linecap: butt; stroke-linejoin: miter; stroke-miterlimit: 10; fill: rgb(0,0,0); fill-rule: nonzero; opacity: 1;" transform=" matrix(1 0 0 1 0 0) " stroke-linecap="round" />
	<path d="M 44.333 64.313 c -0.552 0 -1 -0.447 -1 -1 V 54.77 c 0 -0.743 -0.605 -1.348 -1.349 -1.348 h -2.063 c -0.744 0 -1.349 0.604 -1.349 1.348 v 8.544 c 0 0.553 -0.448 1 -1 1 s -1 -0.447 -1 -1 V 54.77 c 0 -1.846 1.502 -3.348 3.349 -3.348 h 2.063 c 1.847 0 3.349 1.502 3.349 3.348 v 8.544 C 45.333 63.866 44.886 64.313 44.333 64.313 z" style="stroke: none; stroke-width: 1; stroke-dasharray: none; stroke-linecap: butt; stroke-linejoin: miter; stroke-miterlimit: 10; fill: rgb(0,0,0); fill-rule: nonzero; opacity: 1;" transform=" matrix(1 0 0 1 0 0) " stroke-linecap="round" />
	<path d="M 44.333 58.867 h -6.761 c -0.552 0 -1 -0.447 -1 -1 s 0.448 -1 1 -1 h 6.761 c 0.552 0 1 0.447 1 1 S 44.886 58.867 44.333 58.867 z" style="stroke: none; stroke-width: 1; stroke-dasharray: none; stroke-linecap: butt; stroke-linejoin: miter; stroke-miterlimit: 10; fill: rgb(0,0,0); fill-rule: nonzero; opacity: 1;" transform=" matrix(1 0 0 1 0 0) " stroke-linecap="round" />
	<path d="M 50.347 64.313 c -0.553 0 -1 -0.447 -1 -1 V 52.422 c 0 -0.553 0.447 -1 1 -1 s 1 0.447 1 1 v 10.892 C 51.347 63.866 50.899 64.313 50.347 64.313 z" style="stroke: none; stroke-width: 1; stroke-dasharray: none; stroke-linecap: butt; stroke-linejoin: miter; stroke-miterlimit: 10; fill: rgb(0,0,0); fill-rule: nonzero; opacity: 1;" transform=" matrix(1 0 0 1 0 0) " stroke-linecap="round" />
	<path d="M 52.579 53.422 h -4.466 c -0.553 0 -1 -0.447 -1 -1 s 0.447 -1 1 -1 h 4.466 c 0.553 0 1 0.447 1 1 S 53.132 53.422 52.579 53.422 z" style="stroke: none; stroke-width: 1; stroke-dasharray: none; stroke-linecap: butt; stroke-linejoin: miter; stroke-miterlimit: 10; fill: rgb(0,0,0); fill-rule: nonzero; opacity: 1;" transform=" matrix(1 0 0 1 0 0) " stroke-linecap="round" />
	<path d="M 52.579 64.313 h -4.466 c -0.553 0 -1 -0.447 -1 -1 s 0.447 -1 1 -1 h 4.466 c 0.553 0 1 0.447 1 1 S 53.132 64.313 52.579 64.313 z" style="stroke: none; stroke-width: 1; stroke-dasharray: none; stroke-linecap: butt; stroke-linejoin: miter; stroke-miterlimit: 10; fill: rgb(0,0,0); fill-rule: nonzero; opacity: 1;" transform=" matrix(1 0 0 1 0 0) " stroke-linecap="round" />
</g>
</svg>