<svg xmlns="http://www.w3.org/2000/svg" xmlns:xlink="http://www.w3.org/1999/xlink" version="1.1" width="256" height="256" viewBox="0 0 256 256" xml:space="preserve">

<defs>
</defs>
<g style="stroke: none; stroke-width: 0; stroke-dasharray: none; stroke-linecap: butt; stroke-linejoin: miter; stroke-miterlimit: 10; fill: none; fill-rule: nonzero; opacity: 1;" transform="translate(1.4065934065934016 1.4065934065934016) scale(2.81 2.81)" >
	<rect x="22.67" y="4.75" rx="0" ry="0" width="35.71" height="12.11" style="stroke: none; stroke-width: 1; stroke-dasharray: none; stroke-linecap: butt; stroke-linejoin: miter; stroke-miterlimit: 10; fill: rgb(201,207,212); fill-rule: nonzero; opacity: 1;" transform=" matrix(1 0 0 1 0 0) "/>
	<path d="M 58.378 17.857 H 22.673 c -0.552 0 -1 -0.448 -1 -1 V 4.745 c 0 -0.552 0.448 -1 1 -1 H 58.38 c 0.553 0 1 0.448 1 1 s -0.447 1 -1 1 H 23.673 v 10.112 h 34.705 c 0.553 0 1 0.448 1 1 S 58.931 17.857 58.378 17.857 z" style="stroke: none; stroke-width: 1; stroke-dasharray: none; stroke-linecap: butt; stroke-linejoin: miter; stroke-miterlimit: 10; fill: rgb(0,0,0); fill-rule: nonzero; opacity: 1;" transform=" matrix(1 0 0 1 0 0) " stroke-linecap="round" />
	<rect x="17.87" y="8.23" rx="0" ry="0" width="12.11" height="26.07" style="stroke: none; stroke-width: 1; stroke-dasharray: none; stroke-linecap: butt; stroke-linejoin: miter; stroke-miterlimit: 10; fill: rgb(201,207,212); fill-rule: nonzero; opacity: 1;" transform=" matrix(1 0 0 1 0 0) "/>
	<path d="M 46.861 73.393 H 1 V 40.895 C 1 37.253 3.953 34.3 7.595 34.3 h 32.67 c 3.642 0 6.595 2.953 6.595 6.595 V 73.393 z" style="stroke: none; stroke-width: 1; stroke-dasharray: none; stroke-linecap: butt; stroke-linejoin: miter; stroke-miterlimit: 10; fill: rgb(176,182,188); fill-rule: nonzero; opacity: 1;" transform=" matrix(1 0 0 1 0 0) " stroke-linecap="round" />
	<circle cx="23.927999999999997" cy="10.798" r="9.308" style="stroke: none; stroke-width: 1; stroke-dasharray: none; stroke-linecap: butt; stroke-linejoin: miter; stroke-miterlimit: 10; fill: rgb(176,182,188); fill-rule: nonzero; opacity: 1;" transform="  matrix(1 0 0 1 0 0) "/>
	<path d="M 46.861 74.393 H 1 c -0.552 0 -1 -0.447 -1 -1 V 40.895 C 0 36.707 3.407 33.3 7.595 33.3 h 32.67 c 4.188 0 7.596 3.407 7.596 7.595 v 32.498 C 47.861 73.945 47.414 74.393 46.861 74.393 z M 2 72.393 h 43.861 V 40.895 c 0 -3.085 -2.51 -5.595 -5.596 -5.595 H 7.595 C 4.51 35.3 2 37.81 2 40.895 V 72.393 z" style="stroke: none; stroke-width: 1; stroke-dasharray: none; stroke-linecap: butt; stroke-linejoin: miter; stroke-miterlimit: 10; fill: rgb(0,0,0); fill-rule: nonzero; opacity: 1;" transform=" matrix(1 0 0 1 0 0) " stroke-linecap="round" />
	<path d="M 29.987 35.3 H 17.875 c -0.552 0 -1 -0.448 -1 -1 V 17.865 c 0 -0.552 0.448 -1 1 -1 s 1 0.448 1 1 V 33.3 h 10.112 V 17.867 c 0 -0.552 0.448 -1 1 -1 s 1 0.448 1 1 V 34.3 C 30.987 34.852 30.539 35.3 29.987 35.3 z" style="stroke: none; stroke-width: 1; stroke-dasharray: none; stroke-linecap: butt; stroke-linejoin: miter; stroke-miterlimit: 10; fill: rgb(0,0,0); fill-rule: nonzero; opacity: 1;" transform=" matrix(1 0 0 1 0 0) " stroke-linecap="round" />
	<path d="M 23.931 21.109 c -5.684 0 -10.308 -4.624 -10.308 -10.308 c 0 -5.684 4.624 -10.308 10.308 -10.308 c 5.684 0 10.308 4.624 10.308 10.308 C 34.238 16.485 29.614 21.109 23.931 21.109 z M 23.931 2.493 c -4.581 0 -8.308 3.727 -8.308 8.308 s 3.727 8.308 8.308 8.308 s 8.308 -3.727 8.308 -8.308 S 28.512 2.493 23.931 2.493 z" style="stroke: none; stroke-width: 1; stroke-dasharray: none; stroke-linecap: butt; stroke-linejoin: miter; stroke-miterlimit: 10; fill: rgb(0,0,0); fill-rule: nonzero; opacity: 1;" transform=" matrix(1 0 0 1 0 0) " stroke-linecap="round" />
	<polyline points="46.82,11.65 65.4,9.67 79.75,31.36 71.3,35.07 55.83,19.74 " style="stroke: none; stroke-width: 1; stroke-dasharray: none; stroke-linecap: butt; stroke-linejoin: miter; stroke-miterlimit: 10; fill: rgb(201,207,212); fill-rule: nonzero; opacity: 1;" transform="  matrix(1 0 0 1 0 0) "/>
	<path d="M 77.569 30.966 L 77.569 30.966 c -3.46 0 -6.266 2.805 -6.266 6.266 v 2.954 h 12.531 v -2.954 C 83.834 33.771 81.029 30.966 77.569 30.966 z" style="stroke: none; stroke-width: 1; stroke-dasharray: none; stroke-linecap: butt; stroke-linejoin: miter; stroke-miterlimit: 10; fill: rgb(176,182,188); fill-rule: nonzero; opacity: 1;" transform=" matrix(1 0 0 1 0 0) " stroke-linecap="round" />
	<circle cx="56.128" cy="10.428" r="9.308" style="stroke: none; stroke-width: 1; stroke-dasharray: none; stroke-linecap: butt; stroke-linejoin: miter; stroke-miterlimit: 10; fill: rgb(176,182,188); fill-rule: nonzero; opacity: 1;" transform="  matrix(1 0 0 1 0 0) "/>
	<path d="M 81.359 59.197 v -8.749 c 0 -1.448 -1.174 -2.622 -2.622 -2.622 H 76.4 c -1.448 0 -2.622 1.174 -2.622 2.622 v 8.749 l -7.641 5.114 v -17.76 c 0 -3.516 2.85 -6.366 6.366 -6.366 h 10.13 c 3.516 0 6.366 2.85 6.366 6.366 v 17.76 L 81.359 59.197 z" style="stroke: none; stroke-width: 1; stroke-dasharray: none; stroke-linecap: butt; stroke-linejoin: miter; stroke-miterlimit: 10; fill: rgb(201,207,212); fill-rule: nonzero; opacity: 1;" transform=" matrix(1 0 0 1 0 0) " stroke-linecap="round" />
	<path d="M 89 65.312 c -0.194 0 -0.389 -0.057 -0.557 -0.169 l -7.642 -5.114 c -0.277 -0.186 -0.443 -0.497 -0.443 -0.831 v -8.749 c 0 -0.895 -0.728 -1.622 -1.621 -1.622 H 76.4 c -0.895 0 -1.622 0.728 -1.622 1.622 v 8.749 c 0 0.334 -0.166 0.646 -0.443 0.831 l -7.642 5.114 c -0.308 0.205 -0.702 0.225 -1.027 0.051 c -0.326 -0.174 -0.529 -0.513 -0.529 -0.882 v -17.76 c 0 -4.062 3.305 -7.367 7.367 -7.367 h 10.13 c 4.062 0 7.366 3.305 7.366 7.367 v 17.76 c 0 0.369 -0.203 0.708 -0.529 0.882 C 89.323 65.272 89.161 65.312 89 65.312 z M 82.358 58.663 L 88 62.438 V 46.552 c 0 -2.959 -2.407 -5.367 -5.366 -5.367 h -10.13 c -2.96 0 -5.367 2.408 -5.367 5.367 v 15.887 l 5.642 -3.775 v -8.215 c 0 -1.997 1.625 -3.622 3.622 -3.622 h 2.337 c 1.997 0 3.621 1.625 3.621 3.622 V 58.663 z" style="stroke: none; stroke-width: 1; stroke-dasharray: none; stroke-linecap: butt; stroke-linejoin: miter; stroke-miterlimit: 10; fill: rgb(0,0,0); fill-rule: nonzero; opacity: 1;" transform=" matrix(1 0 0 1 0 0) " stroke-linecap="round" />
	<path d="M 83.834 41.185 H 71.303 c -0.553 0 -1 -0.448 -1 -1 v -2.953 c 0 -4.006 3.26 -7.266 7.266 -7.266 s 7.266 3.26 7.266 7.266 v 2.953 C 84.834 40.737 84.387 41.185 83.834 41.185 z M 72.303 39.185 h 10.531 v -1.953 c 0 -2.904 -2.362 -5.266 -5.266 -5.266 s -5.266 2.362 -5.266 5.266 V 39.185 z" style="stroke: none; stroke-width: 1; stroke-dasharray: none; stroke-linecap: butt; stroke-linejoin: miter; stroke-miterlimit: 10; fill: rgb(0,0,0); fill-rule: nonzero; opacity: 1;" transform=" matrix(1 0 0 1 0 0) " stroke-linecap="round" />
	<path d="M 56.125 20.739 c -5.684 0 -10.308 -4.624 -10.308 -10.308 c 0 -5.684 4.624 -10.308 10.308 -10.308 s 10.308 4.624 10.308 10.308 C 66.433 16.115 61.809 20.739 56.125 20.739 z M 56.125 2.123 c -4.581 0 -8.308 3.727 -8.308 8.308 s 3.727 8.308 8.308 8.308 s 8.308 -3.727 8.308 -8.308 S 60.706 2.123 56.125 2.123 z" style="stroke: none; stroke-width: 1; stroke-dasharray: none; stroke-linecap: butt; stroke-linejoin: miter; stroke-miterlimit: 10; fill: rgb(0,0,0); fill-rule: nonzero; opacity: 1;" transform=" matrix(1 0 0 1 0 0) " stroke-linecap="round" />
	<path d="M 79.755 32.365 c -0.324 0 -0.643 -0.157 -0.835 -0.448 L 64.564 10.219 c -0.305 -0.46 -0.179 -1.081 0.282 -1.386 c 0.46 -0.305 1.08 -0.179 1.386 0.282 l 14.355 21.698 c 0.305 0.46 0.179 1.081 -0.282 1.386 C 80.136 32.311 79.944 32.365 79.755 32.365 z" style="stroke: none; stroke-width: 1; stroke-dasharray: none; stroke-linecap: butt; stroke-linejoin: miter; stroke-miterlimit: 10; fill: rgb(0,0,0); fill-rule: nonzero; opacity: 1;" transform=" matrix(1 0 0 1 0 0) " stroke-linecap="round" />
	<path d="M 71.303 36.068 c -0.255 0 -0.509 -0.096 -0.704 -0.29 L 55.125 20.449 c -0.392 -0.389 -0.395 -1.022 -0.006 -1.414 c 0.388 -0.394 1.021 -0.396 1.414 -0.007 l 15.474 15.329 c 0.392 0.389 0.395 1.022 0.006 1.414 C 71.817 35.969 71.561 36.068 71.303 36.068 z" style="stroke: none; stroke-width: 1; stroke-dasharray: none; stroke-linecap: butt; stroke-linejoin: miter; stroke-miterlimit: 10; fill: rgb(0,0,0); fill-rule: nonzero; opacity: 1;" transform=" matrix(1 0 0 1 0 0) " stroke-linecap="round" />
	<path d="M 23.928 61.541 c -0.552 0 -1 -0.447 -1 -1 v -11.93 c 0 -0.553 0.448 -1 1 -1 s 1 0.447 1 1 v 11.93 C 24.928 61.094 24.48 61.541 23.928 61.541 z" style="stroke: none; stroke-width: 1; stroke-dasharray: none; stroke-linecap: butt; stroke-linejoin: miter; stroke-miterlimit: 10; fill: rgb(0,0,0); fill-rule: nonzero; opacity: 1;" transform=" matrix(1 0 0 1 0 0) " stroke-linecap="round" />
	<path d="M 31.547 61.541 c -0.552 0 -1 -0.447 -1 -1 v -5.626 c 0 -0.306 0.14 -0.595 0.38 -0.785 l 4.196 -3.314 v -2.204 c 0 -0.553 0.448 -1 1 -1 s 1 0.447 1 1 V 51.3 c 0 0.306 -0.14 0.595 -0.38 0.785 l -4.196 3.314 v 5.142 C 32.547 61.094 32.1 61.541 31.547 61.541 z" style="stroke: none; stroke-width: 1; stroke-dasharray: none; stroke-linecap: butt; stroke-linejoin: miter; stroke-miterlimit: 10; fill: rgb(0,0,0); fill-rule: nonzero; opacity: 1;" transform=" matrix(1 0 0 1 0 0) " stroke-linecap="round" />
	<path d="M 16.308 61.541 c -0.552 0 -1 -0.447 -1 -1 v -5.142 l -4.196 -3.314 c -0.24 -0.19 -0.38 -0.479 -0.38 -0.785 v -2.688 c 0 -0.553 0.448 -1 1 -1 s 1 0.447 1 1 v 2.204 l 4.196 3.314 c 0.24 0.19 0.38 0.479 0.38 0.785 v 5.626 C 17.308 61.094 16.86 61.541 16.308 61.541 z" style="stroke: none; stroke-width: 1; stroke-dasharray: none; stroke-linecap: butt; stroke-linejoin: miter; stroke-miterlimit: 10; fill: rgb(0,0,0); fill-rule: nonzero; opacity: 1;" transform=" matrix(1 0 0 1 0 0) " stroke-linecap="round" />
	<circle cx="36.123000000000005" cy="44.633" r="3.453" style="stroke: none; stroke-width: 1; stroke-dasharray: none; stroke-linecap: butt; stroke-linejoin: miter; stroke-miterlimit: 10; fill: rgb(247,191,80); fill-rule: nonzero; opacity: 1;" transform="  matrix(1 0 0 1 0 0) "/>
	<path d="M 36.124 49.084 c -2.456 0 -4.453 -1.998 -4.453 -4.453 s 1.998 -4.453 4.453 -4.453 c 2.455 0 4.453 1.998 4.453 4.453 S 38.579 49.084 36.124 49.084 z M 36.124 42.178 c -1.353 0 -2.453 1.1 -2.453 2.453 s 1.101 2.453 2.453 2.453 s 2.453 -1.101 2.453 -2.453 S 37.477 42.178 36.124 42.178 z" style="stroke: none; stroke-width: 1; stroke-dasharray: none; stroke-linecap: butt; stroke-linejoin: miter; stroke-miterlimit: 10; fill: rgb(0,0,0); fill-rule: nonzero; opacity: 1;" transform=" matrix(1 0 0 1 0 0) " stroke-linecap="round" />
	<circle cx="23.933" cy="44.633" r="3.453" style="stroke: none; stroke-width: 1; stroke-dasharray: none; stroke-linecap: butt; stroke-linejoin: miter; stroke-miterlimit: 10; fill: rgb(126,198,197); fill-rule: nonzero; opacity: 1;" transform="  matrix(1 0 0 1 0 0) "/>
	<path d="M 23.928 49.084 c -2.456 0 -4.453 -1.998 -4.453 -4.453 s 1.998 -4.453 4.453 -4.453 c 2.455 0 4.453 1.998 4.453 4.453 S 26.383 49.084 23.928 49.084 z M 23.928 42.178 c -1.353 0 -2.453 1.1 -2.453 2.453 s 1.101 2.453 2.453 2.453 s 2.453 -1.101 2.453 -2.453 S 25.28 42.178 23.928 42.178 z" style="stroke: none; stroke-width: 1; stroke-dasharray: none; stroke-linecap: butt; stroke-linejoin: miter; stroke-miterlimit: 10; fill: rgb(0,0,0); fill-rule: nonzero; opacity: 1;" transform=" matrix(1 0 0 1 0 0) " stroke-linecap="round" />
	<circle cx="11.732999999999999" cy="44.633" r="3.453" style="stroke: none; stroke-width: 1; stroke-dasharray: none; stroke-linecap: butt; stroke-linejoin: miter; stroke-miterlimit: 10; fill: rgb(241,123,123); fill-rule: nonzero; opacity: 1;" transform="  matrix(1 0 0 1 0 0) "/>
	<path d="M 11.731 49.084 c -2.456 0 -4.453 -1.998 -4.453 -4.453 s 1.998 -4.453 4.453 -4.453 c 2.455 0 4.453 1.998 4.453 4.453 S 14.187 49.084 11.731 49.084 z M 11.731 42.178 c -1.353 0 -2.453 1.1 -2.453 2.453 s 1.101 2.453 2.453 2.453 s 2.453 -1.101 2.453 -2.453 S 13.084 42.178 11.731 42.178 z" style="stroke: none; stroke-width: 1; stroke-dasharray: none; stroke-linecap: butt; stroke-linejoin: miter; stroke-miterlimit: 10; fill: rgb(0,0,0); fill-rule: nonzero; opacity: 1;" transform=" matrix(1 0 0 1 0 0) " stroke-linecap="round" />
	<path d="M 34.234 88.877 H 13.621 c -2.015 0 -3.649 -1.634 -3.649 -3.649 V 64.614 c 0 -2.015 1.634 -3.649 3.649 -3.649 h 20.614 c 2.015 0 3.649 1.634 3.649 3.649 v 20.614 C 37.883 87.243 36.25 88.877 34.234 88.877 z" style="stroke: none; stroke-width: 1; stroke-dasharray: none; stroke-linecap: butt; stroke-linejoin: miter; stroke-miterlimit: 10; fill: rgb(247,191,80); fill-rule: nonzero; opacity: 1;" transform=" matrix(1 0 0 1 0 0) " stroke-linecap="round" />
	<path d="M 34.234 89.877 H 13.621 c -2.563 0 -4.648 -2.086 -4.648 -4.649 V 64.614 c 0 -2.563 2.085 -4.648 4.648 -4.648 h 20.614 c 2.563 0 4.649 2.085 4.649 4.648 v 20.613 C 38.883 87.791 36.798 89.877 34.234 89.877 z M 13.621 61.966 c -1.46 0 -2.648 1.188 -2.648 2.648 v 20.613 c 0 1.461 1.188 2.649 2.648 2.649 h 20.614 c 1.46 0 2.649 -1.188 2.649 -2.649 V 64.614 c 0 -1.46 -1.188 -2.648 -2.649 -2.648 H 13.621 z" style="stroke: none; stroke-width: 1; stroke-dasharray: none; stroke-linecap: butt; stroke-linejoin: miter; stroke-miterlimit: 10; fill: rgb(0,0,0); fill-rule: nonzero; opacity: 1;" transform=" matrix(1 0 0 1 0 0) " stroke-linecap="round" />
	<path d="M 23.152 81.61 c -0.552 0 -1 -0.447 -1 -1 v -8.925 c 0 -0.801 -0.652 -1.453 -1.453 -1.453 h -2.156 c -0.801 0 -1.453 0.652 -1.453 1.453 v 8.925 c 0 0.553 -0.448 1 -1 1 s -1 -0.447 -1 -1 v -8.925 c 0 -1.904 1.549 -3.453 3.453 -3.453 h 2.156 c 1.904 0 3.453 1.549 3.453 3.453 v 8.925 C 24.152 81.163 23.704 81.61 23.152 81.61 z" style="stroke: none; stroke-width: 1; stroke-dasharray: none; stroke-linecap: butt; stroke-linejoin: miter; stroke-miterlimit: 10; fill: rgb(0,0,0); fill-rule: nonzero; opacity: 1;" transform=" matrix(1 0 0 1 0 0) " stroke-linecap="round" />
	<path d="M 23.152 75.921 h -7.063 c -0.552 0 -1 -0.447 -1 -1 s 0.448 -1 1 -1 h 7.063 c 0.552 0 1 0.447 1 1 S 23.704 75.921 23.152 75.921 z" style="stroke: none; stroke-width: 1; stroke-dasharray: none; stroke-linecap: butt; stroke-linejoin: miter; stroke-miterlimit: 10; fill: rgb(0,0,0); fill-rule: nonzero; opacity: 1;" transform=" matrix(1 0 0 1 0 0) " stroke-linecap="round" />
	<path d="M 29.433 81.61 c -0.552 0 -1 -0.447 -1 -1 V 69.232 c 0 -0.553 0.448 -1 1 -1 s 1 0.447 1 1 V 80.61 C 30.433 81.163 29.985 81.61 29.433 81.61 z" style="stroke: none; stroke-width: 1; stroke-dasharray: none; stroke-linecap: butt; stroke-linejoin: miter; stroke-miterlimit: 10; fill: rgb(0,0,0); fill-rule: nonzero; opacity: 1;" transform=" matrix(1 0 0 1 0 0) " stroke-linecap="round" />
	<path d="M 31.766 70.232 h -4.665 c -0.552 0 -1 -0.447 -1 -1 s 0.448 -1 1 -1 h 4.665 c 0.552 0 1 0.447 1 1 S 32.318 70.232 31.766 70.232 z" style="stroke: none; stroke-width: 1; stroke-dasharray: none; stroke-linecap: butt; stroke-linejoin: miter; stroke-miterlimit: 10; fill: rgb(0,0,0); fill-rule: nonzero; opacity: 1;" transform=" matrix(1 0 0 1 0 0) " stroke-linecap="round" />
	<path d="M 31.766 81.61 h -4.665 c -0.552 0 -1 -0.447 -1 -1 s 0.448 -1 1 -1 h 4.665 c 0.552 0 1 0.447 1 1 S 32.318 81.61 31.766 81.61 z" style="stroke: none; stroke-width: 1; stroke-dasharray: none; stroke-linecap: butt; stroke-linejoin: miter; stroke-miterlimit: 10; fill: rgb(0,0,0); fill-rule: nonzero; opacity: 1;" transform=" matrix(1 0 0 1 0 0) " stroke-linecap="round" />
</g>
</svg>