<svg xmlns="http://www.w3.org/2000/svg" xmlns:xlink="http://www.w3.org/1999/xlink" version="1.1" width="256" height="256" viewBox="0 0 256 256" xml:space="preserve">

<defs>
</defs>
<g style="stroke: none; stroke-width: 0; stroke-dasharray: none; stroke-linecap: butt; stroke-linejoin: miter; stroke-miterlimit: 10; fill: none; fill-rule: nonzero; opacity: 1;" transform="translate(1.4065934065934016 1.4065934065934016) scale(2.81 2.81)" >
	<path d="M 80.823 17.024 L 65.78 1.981 c -0.539 -0.539 -1.27 -0.842 -2.033 -0.842 H 19.822 c -1.588 0 -2.875 1.287 -2.875 2.875 v 46.067 h 27.32 c 1.447 0 2.619 1.131 2.619 2.525 v 23.987 c 0 1.395 -1.173 2.525 -2.619 2.525 h -27.32 v 6.866 c 0 1.588 1.287 2.875 2.875 2.875 H 78.79 c 1.588 0 2.875 -1.287 2.875 -2.875 V 19.057 C 81.665 18.294 81.362 17.563 80.823 17.024 z" style="stroke: none; stroke-width: 1; stroke-dasharray: none; stroke-linecap: butt; stroke-linejoin: miter; stroke-miterlimit: 10; fill: rgb(201,207,212); fill-rule: nonzero; opacity: 1;" transform=" matrix(1 0 0 1 0 0) " stroke-linecap="round" />
	<path d="M 8.336 76.594 c 0 1.395 1.173 2.525 2.619 2.525 h 33.312 c 1.447 0 2.619 -1.131 2.619 -2.525 V 52.606 c 0 -1.395 -1.173 -2.525 -2.619 -2.525 H 10.956 c -1.447 0 -2.619 1.131 -2.619 2.525 V 76.594 z" style="stroke: none; stroke-width: 1; stroke-dasharray: none; stroke-linecap: butt; stroke-linejoin: miter; stroke-miterlimit: 10; fill: rgb(247,191,80); fill-rule: nonzero; opacity: 1;" transform=" matrix(1 0 0 1 0 0) " stroke-linecap="round" />
	<path d="M 25.099 33.663 c 0.237 -10.254 8.607 -18.498 18.917 -18.498 v 18.498 H 25.099 z" style="stroke: none; stroke-width: 1; stroke-dasharray: none; stroke-linecap: butt; stroke-linejoin: miter; stroke-miterlimit: 10; fill: rgb(241,123,123); fill-rule: nonzero; opacity: 1;" transform=" matrix(1 0 0 1 0 0) " stroke-linecap="round" />
	<path d="M 49.517 23.123 v 16.041 H 33.113 c -0.003 0.129 -0.019 0.254 -0.019 0.383 c 0 4.011 1.441 7.682 3.829 10.534 h 7.345 c 1.447 0 2.619 1.131 2.619 2.525 v 3.135 c 0.858 0.139 1.733 0.23 2.63 0.23 c 9.071 0 16.424 -7.353 16.424 -16.424 S 58.588 23.123 49.517 23.123 z" style="stroke: none; stroke-width: 1; stroke-dasharray: none; stroke-linecap: butt; stroke-linejoin: miter; stroke-miterlimit: 10; fill: rgb(126,198,197); fill-rule: nonzero; opacity: 1;" transform=" matrix(1 0 0 1 0 0) " stroke-linecap="round" />
	<circle cx="71.247" cy="58.937" r="4.007" style="stroke: none; stroke-width: 1; stroke-dasharray: none; stroke-linecap: butt; stroke-linejoin: miter; stroke-miterlimit: 10; fill: rgb(241,123,123); fill-rule: nonzero; opacity: 1;" transform="  matrix(1 0 0 1 0 0) "/>
	<circle cx="71.247" cy="75.917" r="4.007" style="stroke: none; stroke-width: 1; stroke-dasharray: none; stroke-linecap: butt; stroke-linejoin: miter; stroke-miterlimit: 10; fill: rgb(126,198,197); fill-rule: nonzero; opacity: 1;" transform="  matrix(1 0 0 1 0 0) "/>
	<path d="M 80.823 17.024 L 65.78 1.981 c -0.245 -0.245 -0.533 -0.434 -0.842 -0.575 v 13.84 c 0 1.447 1.173 2.619 2.619 2.619 h 13.84 C 81.256 17.557 81.067 17.269 80.823 17.024 z" style="stroke: none; stroke-width: 1; stroke-dasharray: none; stroke-linecap: butt; stroke-linejoin: miter; stroke-miterlimit: 10; fill: rgb(176,182,188); fill-rule: nonzero; opacity: 1;" transform=" matrix(1 0 0 1 0 0) " stroke-linecap="round" />
	<path d="M 44.268 80.116 H 10.956 c -1.994 0 -3.616 -1.58 -3.616 -3.522 V 52.606 c 0 -1.942 1.622 -3.522 3.616 -3.522 h 33.312 c 1.994 0 3.616 1.58 3.616 3.522 v 23.988 C 47.884 78.536 46.262 80.116 44.268 80.116 z M 10.956 51.078 c -0.895 0 -1.623 0.685 -1.623 1.528 v 23.988 c 0 0.843 0.728 1.528 1.623 1.528 h 33.312 c 0.895 0 1.622 -0.685 1.622 -1.528 V 52.606 c 0 -0.843 -0.728 -1.528 -1.622 -1.528 H 10.956 z" style="stroke: none; stroke-width: 1; stroke-dasharray: none; stroke-linecap: butt; stroke-linejoin: miter; stroke-miterlimit: 10; fill: rgb(0,0,0); fill-rule: nonzero; opacity: 1;" transform=" matrix(1 0 0 1 0 0) " stroke-linecap="round" />
	<path d="M 26.55 73.501 c -0.55 0 -0.997 -0.446 -0.997 -0.997 V 59.99 c 0 -1.347 -1.096 -2.443 -2.443 -2.443 h -3.023 c -1.347 0 -2.443 1.096 -2.443 2.443 v 12.515 c 0 0.551 -0.446 0.997 -0.997 0.997 c -0.55 0 -0.997 -0.446 -0.997 -0.997 V 59.99 c 0 -2.446 1.99 -4.437 4.437 -4.437 h 3.023 c 2.446 0 4.437 1.991 4.437 4.437 v 12.515 C 27.546 73.056 27.1 73.501 26.55 73.501 z" style="stroke: none; stroke-width: 1; stroke-dasharray: none; stroke-linecap: butt; stroke-linejoin: miter; stroke-miterlimit: 10; fill: rgb(0,0,0); fill-rule: nonzero; opacity: 1;" transform=" matrix(1 0 0 1 0 0) " stroke-linecap="round" />
	<path d="M 26.55 65.524 h -9.902 c -0.55 0 -0.997 -0.446 -0.997 -0.997 c 0 -0.551 0.446 -0.997 0.997 -0.997 h 9.902 c 0.55 0 0.997 0.446 0.997 0.997 C 27.546 65.078 27.1 65.524 26.55 65.524 z" style="stroke: none; stroke-width: 1; stroke-dasharray: none; stroke-linecap: butt; stroke-linejoin: miter; stroke-miterlimit: 10; fill: rgb(0,0,0); fill-rule: nonzero; opacity: 1;" transform=" matrix(1 0 0 1 0 0) " stroke-linecap="round" />
	<path d="M 35.306 73.501 c -0.55 0 -0.997 -0.446 -0.997 -0.997 V 56.55 c 0 -0.551 0.446 -0.997 0.997 -0.997 c 0.55 0 0.997 0.446 0.997 0.997 v 15.955 C 36.303 73.056 35.857 73.501 35.306 73.501 z" style="stroke: none; stroke-width: 1; stroke-dasharray: none; stroke-linecap: butt; stroke-linejoin: miter; stroke-miterlimit: 10; fill: rgb(0,0,0); fill-rule: nonzero; opacity: 1;" transform=" matrix(1 0 0 1 0 0) " stroke-linecap="round" />
	<path d="M 38.577 57.546 h -6.542 c -0.55 0 -0.997 -0.446 -0.997 -0.997 c 0 -0.551 0.446 -0.997 0.997 -0.997 h 6.542 c 0.55 0 0.997 0.446 0.997 0.997 C 39.574 57.101 39.128 57.546 38.577 57.546 z" style="stroke: none; stroke-width: 1; stroke-dasharray: none; stroke-linecap: butt; stroke-linejoin: miter; stroke-miterlimit: 10; fill: rgb(0,0,0); fill-rule: nonzero; opacity: 1;" transform=" matrix(1 0 0 1 0 0) " stroke-linecap="round" />
	<path d="M 38.577 73.501 h -6.542 c -0.55 0 -0.997 -0.446 -0.997 -0.997 c 0 -0.551 0.446 -0.997 0.997 -0.997 h 6.542 c 0.55 0 0.997 0.446 0.997 0.997 C 39.574 73.056 39.128 73.501 38.577 73.501 z" style="stroke: none; stroke-width: 1; stroke-dasharray: none; stroke-linecap: butt; stroke-linejoin: miter; stroke-miterlimit: 10; fill: rgb(0,0,0); fill-rule: nonzero; opacity: 1;" transform=" matrix(1 0 0 1 0 0) " stroke-linecap="round" />
	<path d="M 45.013 34.659 H 24.079 l 0.024 -1.02 c 0.248 -10.737 9.181 -19.472 19.914 -19.472 h 0.997 V 34.659 z M 26.148 32.666 h 16.871 V 16.19 C 34.149 16.689 26.863 23.805 26.148 32.666 z" style="stroke: none; stroke-width: 1; stroke-dasharray: none; stroke-linecap: butt; stroke-linejoin: miter; stroke-miterlimit: 10; fill: rgb(0,0,0); fill-rule: nonzero; opacity: 1;" transform=" matrix(1 0 0 1 0 0) " stroke-linecap="round" />
	<path d="M 49.517 56.968 c -0.863 0 -1.776 -0.079 -2.789 -0.242 L 45.89 56.59 v -3.984 c 0 -0.843 -0.728 -1.528 -1.622 -1.528 h -7.811 l -0.299 -0.357 c -2.619 -3.128 -4.062 -7.097 -4.062 -11.173 c 0 -0.094 0.006 -0.187 0.012 -0.28 l 0.029 -1.1 H 48.52 V 22.126 h 0.997 c 9.606 0 17.421 7.815 17.421 17.421 S 59.123 56.968 49.517 56.968 z M 47.884 54.874 c 0.578 0.067 1.119 0.1 1.633 0.1 c 8.507 0 15.427 -6.92 15.427 -15.427 c 0 -8.172 -6.387 -14.88 -14.431 -15.396 V 40.16 H 34.103 c 0.13 3.24 1.285 6.372 3.295 8.924 h 6.871 c 1.994 0 3.616 1.58 3.616 3.522 V 54.874 z" style="stroke: none; stroke-width: 1; stroke-dasharray: none; stroke-linecap: butt; stroke-linejoin: miter; stroke-miterlimit: 10; fill: rgb(0,0,0); fill-rule: nonzero; opacity: 1;" transform=" matrix(1 0 0 1 0 0) " stroke-linecap="round" />
	<path d="M 71.244 63.945 c -2.759 0 -5.004 -2.245 -5.004 -5.005 c 0 -2.759 2.245 -5.004 5.004 -5.004 c 2.76 0 5.005 2.245 5.005 5.004 C 76.248 61.7 74.004 63.945 71.244 63.945 z M 71.244 55.93 c -1.66 0 -3.01 1.35 -3.01 3.01 s 1.35 3.011 3.01 3.011 s 3.011 -1.351 3.011 -3.011 S 72.904 55.93 71.244 55.93 z" style="stroke: none; stroke-width: 1; stroke-dasharray: none; stroke-linecap: butt; stroke-linejoin: miter; stroke-miterlimit: 10; fill: rgb(0,0,0); fill-rule: nonzero; opacity: 1;" transform=" matrix(1 0 0 1 0 0) " stroke-linecap="round" />
	<path d="M 71.244 80.923 c -2.759 0 -5.004 -2.245 -5.004 -5.005 c 0 -2.759 2.245 -5.004 5.004 -5.004 c 2.76 0 5.005 2.245 5.005 5.004 C 76.248 78.678 74.004 80.923 71.244 80.923 z M 71.244 72.909 c -1.66 0 -3.01 1.35 -3.01 3.01 s 1.35 3.011 3.01 3.011 s 3.011 -1.351 3.011 -3.011 S 72.904 72.909 71.244 72.909 z" style="stroke: none; stroke-width: 1; stroke-dasharray: none; stroke-linecap: butt; stroke-linejoin: miter; stroke-miterlimit: 10; fill: rgb(0,0,0); fill-rule: nonzero; opacity: 1;" transform=" matrix(1 0 0 1 0 0) " stroke-linecap="round" />
	<path d="M 58.982 65.597 H 46.887 c -0.551 0 -0.997 -0.446 -0.997 -0.997 c 0 -0.551 0.446 -0.997 0.997 -0.997 h 11.098 V 58.94 c 0 -0.551 0.446 -0.997 0.997 -0.997 h 8.255 c 0.551 0 0.997 0.446 0.997 0.997 s -0.446 0.997 -0.997 0.997 h -7.258 V 64.6 C 59.979 65.151 59.533 65.597 58.982 65.597 z" style="stroke: none; stroke-width: 1; stroke-dasharray: none; stroke-linecap: butt; stroke-linejoin: miter; stroke-miterlimit: 10; fill: rgb(0,0,0); fill-rule: nonzero; opacity: 1;" transform=" matrix(1 0 0 1 0 0) " stroke-linecap="round" />
	<path d="M 67.237 76.915 H 54.598 c -0.551 0 -0.997 -0.446 -0.997 -0.997 v -5.097 h -6.714 c -0.551 0 -0.997 -0.446 -0.997 -0.997 s 0.446 -0.997 0.997 -0.997 h 7.711 c 0.551 0 0.997 0.446 0.997 0.997 v 5.097 h 11.643 c 0.551 0 0.997 0.446 0.997 0.997 S 67.788 76.915 67.237 76.915 z" style="stroke: none; stroke-width: 1; stroke-dasharray: none; stroke-linecap: butt; stroke-linejoin: miter; stroke-miterlimit: 10; fill: rgb(0,0,0); fill-rule: nonzero; opacity: 1;" transform=" matrix(1 0 0 1 0 0) " stroke-linecap="round" />
	<path d="M 82.948 18.863 h -15.39 c -1.994 0 -3.616 -1.622 -3.616 -3.616 v -15.39 L 65.352 0.5 c 0.436 0.199 0.818 0.46 1.134 0.777 L 81.528 16.32 c 0.316 0.317 0.577 0.698 0.775 1.132 L 82.948 18.863 z M 65.935 3.546 v 11.7 c 0 0.895 0.728 1.623 1.623 1.623 h 11.701 L 65.935 3.546 z" style="stroke: none; stroke-width: 1; stroke-dasharray: none; stroke-linecap: butt; stroke-linejoin: miter; stroke-miterlimit: 10; fill: rgb(0,0,0); fill-rule: nonzero; opacity: 1;" transform=" matrix(1 0 0 1 0 0) " stroke-linecap="round" />
	<path d="M 78.79 89.856 H 19.822 c -2.135 0 -3.872 -1.737 -3.872 -3.871 v -7.863 h 28.317 c 0.895 0 1.622 -0.685 1.622 -1.528 V 52.606 c 0 -0.843 -0.728 -1.528 -1.622 -1.528 H 15.951 V 4.015 c 0 -2.135 1.737 -3.872 3.872 -3.872 h 43.925 c 1.02 0 2.018 0.414 2.738 1.135 l 15.042 15.042 c 0.731 0.731 1.134 1.704 1.134 2.738 v 66.928 C 82.662 88.12 80.925 89.856 78.79 89.856 z M 17.944 80.116 v 5.869 c 0 1.036 0.843 1.878 1.878 1.878 H 78.79 c 1.036 0 1.878 -0.842 1.878 -1.878 V 19.057 c 0 -0.502 -0.196 -0.973 -0.55 -1.328 L 65.075 2.686 c -0.349 -0.35 -0.833 -0.55 -1.328 -0.55 H 19.822 c -1.036 0 -1.878 0.843 -1.878 1.878 v 45.07 h 26.324 c 1.994 0 3.616 1.58 3.616 3.522 v 23.988 c 0 1.942 -1.622 3.522 -3.616 3.522 H 17.944 z" style="stroke: none; stroke-width: 1; stroke-dasharray: none; stroke-linecap: butt; stroke-linejoin: miter; stroke-miterlimit: 10; fill: rgb(0,0,0); fill-rule: nonzero; opacity: 1;" transform=" matrix(1 0 0 1 0 0) " stroke-linecap="round" />
</g>
</svg>