<svg xmlns="http://www.w3.org/2000/svg" xmlns:xlink="http://www.w3.org/1999/xlink" version="1.1" width="256" height="256" viewBox="0 0 256 256" xml:space="preserve">

<defs>
</defs>
<g style="stroke: none; stroke-width: 0; stroke-dasharray: none; stroke-linecap: butt; stroke-linejoin: miter; stroke-miterlimit: 10; fill: none; fill-rule: nonzero; opacity: 1;" transform="translate(1.4065934065934016 1.4065934065934016) scale(2.81 2.81)" >
	<path d="M 65.868 68.197 h -45.34 l 0 -38.206 c 15.113 -5.458 30.226 -5.458 45.34 0 V 68.197 z" style="stroke: none; stroke-width: 1; stroke-dasharray: none; stroke-linecap: butt; stroke-linejoin: miter; stroke-miterlimit: 10; fill: rgb(201,207,212); fill-rule: nonzero; opacity: 1;" transform=" matrix(1 0 0 1 0 0) " stroke-linecap="round" />
	<path d="M 20.529 29.992 c 15.113 -5.458 30.226 -5.458 45.34 0 v 8.375 l 19.529 -11.191 L 43.198 2.993 L 1 27.176 l 19.529 11.191 V 29.992 z" style="stroke: none; stroke-width: 1; stroke-dasharray: none; stroke-linecap: butt; stroke-linejoin: miter; stroke-miterlimit: 10; fill: rgb(176,182,188); fill-rule: nonzero; opacity: 1;" transform=" matrix(1 0 0 1 0 0) " stroke-linecap="round" />
	<path d="M 65.868 69.197 h -45.34 c -0.552 0 -1 -0.447 -1 -1 V 29.992 c 0 -0.421 0.264 -0.797 0.66 -0.94 c 15.269 -5.513 30.752 -5.513 46.02 0 c 0.396 0.143 0.66 0.519 0.66 0.94 v 38.206 C 66.868 68.75 66.421 69.197 65.868 69.197 z M 21.528 67.197 h 43.34 v -36.5 c -14.383 -5.038 -28.956 -5.038 -43.34 0 V 67.197 z" style="stroke: none; stroke-width: 1; stroke-dasharray: none; stroke-linecap: butt; stroke-linejoin: miter; stroke-miterlimit: 10; fill: rgb(0,0,0); fill-rule: nonzero; opacity: 1;" transform=" matrix(1 0 0 1 0 0) " stroke-linecap="round" />
	<path d="M 65.868 39.367 c -0.173 0 -0.347 -0.045 -0.501 -0.135 c -0.309 -0.179 -0.499 -0.508 -0.499 -0.865 v -7.669 c -14.383 -5.038 -28.956 -5.038 -43.34 0 v 7.669 c 0 0.357 -0.19 0.687 -0.499 0.865 c -0.309 0.179 -0.688 0.181 -0.999 0.002 L 0.503 28.043 C 0.192 27.865 0 27.534 0 27.176 s 0.192 -0.689 0.503 -0.868 L 42.701 2.126 c 0.308 -0.177 0.687 -0.177 0.994 0 l 42.198 24.182 c 0.312 0.178 0.503 0.509 0.503 0.868 s -0.191 0.689 -0.503 0.868 L 66.365 39.234 C 66.211 39.323 66.04 39.367 65.868 39.367 z M 43.198 24.916 c 7.688 0 15.376 1.379 23.01 4.136 c 0.396 0.143 0.66 0.519 0.66 0.94 v 6.649 l 16.517 -9.465 L 43.198 4.146 L 3.011 27.176 l 16.517 9.465 v -6.649 c 0 -0.421 0.264 -0.797 0.66 -0.94 C 27.823 26.294 35.51 24.916 43.198 24.916 z" style="stroke: none; stroke-width: 1; stroke-dasharray: none; stroke-linecap: butt; stroke-linejoin: miter; stroke-miterlimit: 10; fill: rgb(0,0,0); fill-rule: nonzero; opacity: 1;" transform=" matrix(1 0 0 1 0 0) " stroke-linecap="round" />
	<path d="M 43.198 59.028 c -0.552 0 -1 -0.447 -1 -1 V 47.442 c 0 -0.553 0.448 -1 1 -1 s 1 0.447 1 1 v 10.586 C 44.198 58.581 43.75 59.028 43.198 59.028 z" style="stroke: none; stroke-width: 1; stroke-dasharray: none; stroke-linecap: butt; stroke-linejoin: miter; stroke-miterlimit: 10; fill: rgb(0,0,0); fill-rule: nonzero; opacity: 1;" transform=" matrix(1 0 0 1 0 0) " stroke-linecap="round" />
	<path d="M 50.991 59.028 c -0.553 0 -1 -0.447 -1 -1 V 53.89 c 0 -0.306 0.14 -0.595 0.38 -0.784 l 4.3 -3.397 v -2.266 c 0 -0.553 0.447 -1 1 -1 s 1 0.447 1 1 v 2.75 c 0 0.306 -0.14 0.595 -0.38 0.784 l -4.3 3.397 v 3.654 C 51.991 58.581 51.544 59.028 50.991 59.028 z" style="stroke: none; stroke-width: 1; stroke-dasharray: none; stroke-linecap: butt; stroke-linejoin: miter; stroke-miterlimit: 10; fill: rgb(0,0,0); fill-rule: nonzero; opacity: 1;" transform=" matrix(1 0 0 1 0 0) " stroke-linecap="round" />
	<path d="M 35.406 59.028 c -0.552 0 -1 -0.447 -1 -1 v -3.654 l -4.3 -3.396 c -0.24 -0.19 -0.38 -0.479 -0.38 -0.785 v -2.75 c 0 -0.553 0.448 -1 1 -1 s 1 0.447 1 1 v 2.266 l 4.3 3.396 c 0.24 0.19 0.38 0.479 0.38 0.785 v 4.139 C 36.406 58.581 35.958 59.028 35.406 59.028 z" style="stroke: none; stroke-width: 1; stroke-dasharray: none; stroke-linecap: butt; stroke-linejoin: miter; stroke-miterlimit: 10; fill: rgb(0,0,0); fill-rule: nonzero; opacity: 1;" transform=" matrix(1 0 0 1 0 0) " stroke-linecap="round" />
	<circle cx="55.671" cy="43.371" r="3.531" style="stroke: none; stroke-width: 1; stroke-dasharray: none; stroke-linecap: butt; stroke-linejoin: miter; stroke-miterlimit: 10; fill: rgb(247,191,80); fill-rule: nonzero; opacity: 1;" transform="  matrix(1 0 0 1 0 0) "/>
	<path d="M 55.671 47.903 c -2.499 0 -4.531 -2.033 -4.531 -4.531 s 2.032 -4.531 4.531 -4.531 s 4.531 2.033 4.531 4.531 S 58.17 47.903 55.671 47.903 z M 55.671 40.841 c -1.396 0 -2.531 1.136 -2.531 2.531 s 1.136 2.531 2.531 2.531 s 2.531 -1.136 2.531 -2.531 S 57.066 40.841 55.671 40.841 z" style="stroke: none; stroke-width: 1; stroke-dasharray: none; stroke-linecap: butt; stroke-linejoin: miter; stroke-miterlimit: 10; fill: rgb(0,0,0); fill-rule: nonzero; opacity: 1;" transform=" matrix(1 0 0 1 0 0) " stroke-linecap="round" />
	<circle cx="43.201" cy="43.371" r="3.531" style="stroke: none; stroke-width: 1; stroke-dasharray: none; stroke-linecap: butt; stroke-linejoin: miter; stroke-miterlimit: 10; fill: rgb(126,198,197); fill-rule: nonzero; opacity: 1;" transform="  matrix(1 0 0 1 0 0) "/>
	<path d="M 43.198 47.903 c -2.499 0 -4.531 -2.033 -4.531 -4.531 s 2.033 -4.531 4.531 -4.531 s 4.531 2.033 4.531 4.531 S 45.697 47.903 43.198 47.903 z M 43.198 40.841 c -1.396 0 -2.531 1.136 -2.531 2.531 s 1.136 2.531 2.531 2.531 s 2.531 -1.136 2.531 -2.531 S 44.594 40.841 43.198 40.841 z" style="stroke: none; stroke-width: 1; stroke-dasharray: none; stroke-linecap: butt; stroke-linejoin: miter; stroke-miterlimit: 10; fill: rgb(0,0,0); fill-rule: nonzero; opacity: 1;" transform=" matrix(1 0 0 1 0 0) " stroke-linecap="round" />
	<circle cx="30.730999999999998" cy="43.371" r="3.531" style="stroke: none; stroke-width: 1; stroke-dasharray: none; stroke-linecap: butt; stroke-linejoin: miter; stroke-miterlimit: 10; fill: rgb(241,123,123); fill-rule: nonzero; opacity: 1;" transform="  matrix(1 0 0 1 0 0) "/>
	<path d="M 30.726 47.903 c -2.499 0 -4.531 -2.033 -4.531 -4.531 s 2.033 -4.531 4.531 -4.531 s 4.531 2.033 4.531 4.531 S 33.224 47.903 30.726 47.903 z M 30.726 40.841 c -1.396 0 -2.531 1.136 -2.531 2.531 s 1.136 2.531 2.531 2.531 s 2.531 -1.136 2.531 -2.531 S 32.121 40.841 30.726 40.841 z" style="stroke: none; stroke-width: 1; stroke-dasharray: none; stroke-linecap: butt; stroke-linejoin: miter; stroke-miterlimit: 10; fill: rgb(0,0,0); fill-rule: nonzero; opacity: 1;" transform=" matrix(1 0 0 1 0 0) " stroke-linecap="round" />
	<path d="M 53.739 87.007 H 32.658 c -2.061 0 -3.731 -1.671 -3.731 -3.731 V 62.194 c 0 -2.061 1.671 -3.731 3.731 -3.731 h 21.081 c 2.061 0 3.731 1.671 3.731 3.731 v 21.081 C 57.47 85.336 55.8 87.007 53.739 87.007 z" style="stroke: none; stroke-width: 1; stroke-dasharray: none; stroke-linecap: butt; stroke-linejoin: miter; stroke-miterlimit: 10; fill: rgb(247,191,80); fill-rule: nonzero; opacity: 1;" transform=" matrix(1 0 0 1 0 0) " stroke-linecap="round" />
	<path d="M 53.738 88.007 h -21.08 c -2.609 0 -4.731 -2.122 -4.731 -4.731 V 62.194 c 0 -2.609 2.123 -4.731 4.731 -4.731 h 21.08 c 2.609 0 4.731 2.122 4.731 4.731 v 21.081 C 58.47 85.885 56.348 88.007 53.738 88.007 z M 32.658 59.463 c -1.506 0 -2.731 1.226 -2.731 2.731 v 21.081 c 0 1.506 1.225 2.731 2.731 2.731 h 21.08 c 1.506 0 2.731 -1.226 2.731 -2.731 V 62.194 c 0 -1.506 -1.226 -2.731 -2.731 -2.731 H 32.658 z" style="stroke: none; stroke-width: 1; stroke-dasharray: none; stroke-linecap: butt; stroke-linejoin: miter; stroke-miterlimit: 10; fill: rgb(0,0,0); fill-rule: nonzero; opacity: 1;" transform=" matrix(1 0 0 1 0 0) " stroke-linecap="round" />
	<path d="M 42.405 79.553 c -0.552 0 -1 -0.447 -1 -1 v -9.127 c 0 -0.832 -0.677 -1.509 -1.509 -1.509 h -2.205 c -0.832 0 -1.509 0.677 -1.509 1.509 v 9.127 c 0 0.553 -0.448 1 -1 1 s -1 -0.447 -1 -1 v -9.127 c 0 -1.935 1.574 -3.509 3.509 -3.509 h 2.205 c 1.935 0 3.509 1.574 3.509 3.509 v 9.127 C 43.405 79.105 42.957 79.553 42.405 79.553 z" style="stroke: none; stroke-width: 1; stroke-dasharray: none; stroke-linecap: butt; stroke-linejoin: miter; stroke-miterlimit: 10; fill: rgb(0,0,0); fill-rule: nonzero; opacity: 1;" transform=" matrix(1 0 0 1 0 0) " stroke-linecap="round" />
	<path d="M 42.405 73.734 h -7.222 c -0.552 0 -1 -0.447 -1 -1 s 0.448 -1 1 -1 h 7.222 c 0.552 0 1 0.447 1 1 S 42.957 73.734 42.405 73.734 z" style="stroke: none; stroke-width: 1; stroke-dasharray: none; stroke-linecap: butt; stroke-linejoin: miter; stroke-miterlimit: 10; fill: rgb(0,0,0); fill-rule: nonzero; opacity: 1;" transform=" matrix(1 0 0 1 0 0) " stroke-linecap="round" />
	<path d="M 48.829 79.553 c -0.553 0 -1 -0.447 -1 -1 V 66.917 c 0 -0.553 0.447 -1 1 -1 s 1 0.447 1 1 v 11.636 C 49.829 79.105 49.382 79.553 48.829 79.553 z" style="stroke: none; stroke-width: 1; stroke-dasharray: none; stroke-linecap: butt; stroke-linejoin: miter; stroke-miterlimit: 10; fill: rgb(0,0,0); fill-rule: nonzero; opacity: 1;" transform=" matrix(1 0 0 1 0 0) " stroke-linecap="round" />
	<path d="M 51.214 67.917 h -4.771 c -0.552 0 -1 -0.447 -1 -1 s 0.448 -1 1 -1 h 4.771 c 0.553 0 1 0.447 1 1 S 51.767 67.917 51.214 67.917 z" style="stroke: none; stroke-width: 1; stroke-dasharray: none; stroke-linecap: butt; stroke-linejoin: miter; stroke-miterlimit: 10; fill: rgb(0,0,0); fill-rule: nonzero; opacity: 1;" transform=" matrix(1 0 0 1 0 0) " stroke-linecap="round" />
	<path d="M 51.214 79.553 h -4.771 c -0.552 0 -1 -0.447 -1 -1 s 0.448 -1 1 -1 h 4.771 c 0.553 0 1 0.447 1 1 S 51.767 79.553 51.214 79.553 z" style="stroke: none; stroke-width: 1; stroke-dasharray: none; stroke-linecap: butt; stroke-linejoin: miter; stroke-miterlimit: 10; fill: rgb(0,0,0); fill-rule: nonzero; opacity: 1;" transform=" matrix(1 0 0 1 0 0) " stroke-linecap="round" />
	<path d="M 85.396 62.512 c -0.553 0 -1 -0.447 -1 -1 V 27.176 c 0 -0.552 0.447 -1 1 -1 s 1 0.448 1 1 v 34.336 C 86.396 62.064 85.949 62.512 85.396 62.512 z" style="stroke: none; stroke-width: 1; stroke-dasharray: none; stroke-linecap: butt; stroke-linejoin: miter; stroke-miterlimit: 10; fill: rgb(0,0,0); fill-rule: nonzero; opacity: 1;" transform=" matrix(1 0 0 1 0 0) " stroke-linecap="round" />
	<circle cx="85.393" cy="52.843" r="3.603" style="stroke: none; stroke-width: 1; stroke-dasharray: none; stroke-linecap: butt; stroke-linejoin: miter; stroke-miterlimit: 10; fill: rgb(201,207,212); fill-rule: nonzero; opacity: 1;" transform="  matrix(1 0 0 1 0 0) "/>
	<path d="M 85.396 57.451 c -2.538 0 -4.603 -2.065 -4.603 -4.604 s 2.064 -4.604 4.603 -4.604 S 90 50.31 90 52.848 S 87.935 57.451 85.396 57.451 z M 85.396 50.244 c -1.435 0 -2.603 1.168 -2.603 2.604 s 1.168 2.604 2.603 2.604 c 1.436 0 2.604 -1.168 2.604 -2.604 S 86.832 50.244 85.396 50.244 z" style="stroke: none; stroke-width: 1; stroke-dasharray: none; stroke-linecap: butt; stroke-linejoin: miter; stroke-miterlimit: 10; fill: rgb(0,0,0); fill-rule: nonzero; opacity: 1;" transform=" matrix(1 0 0 1 0 0) " stroke-linecap="round" />
</g>
</svg>