<svg xmlns="http://www.w3.org/2000/svg" xmlns:xlink="http://www.w3.org/1999/xlink" version="1.1" width="256" height="256" viewBox="0 0 256 256" xml:space="preserve">

<defs>
</defs>
<g style="stroke: none; stroke-width: 0; stroke-dasharray: none; stroke-linecap: butt; stroke-linejoin: miter; stroke-miterlimit: 10; fill: none; fill-rule: nonzero; opacity: 1;" transform="translate(1.4065934065934016 1.4065934065934016) scale(2.81 2.81)" >
	<path d="M 89 50.828 H 10.427 V 8.115 c 0 -1.55 1.257 -2.807 2.807 -2.807 h 72.959 c 1.55 0 2.807 1.257 2.807 2.807 V 50.828 z" style="stroke: none; stroke-width: 1; stroke-dasharray: none; stroke-linecap: butt; stroke-linejoin: miter; stroke-miterlimit: 10; fill: rgb(201,207,212); fill-rule: nonzero; opacity: 1;" transform=" matrix(1 0 0 1 0 0) " stroke-linecap="round" />
	<path d="M 86.193 65.296 H 13.234 c -1.55 0 -2.807 -1.257 -2.807 -2.807 V 50.828 H 89 v 11.661 C 89 64.039 87.743 65.296 86.193 65.296 z" style="stroke: none; stroke-width: 1; stroke-dasharray: none; stroke-linecap: butt; stroke-linejoin: miter; stroke-miterlimit: 10; fill: rgb(176,182,188); fill-rule: nonzero; opacity: 1;" transform=" matrix(1 0 0 1 0 0) " stroke-linecap="round" />
	<polygon points="63.26,78.04 36.17,78.04 38.35,65.3 61.07,65.3 " style="stroke: none; stroke-width: 1; stroke-dasharray: none; stroke-linecap: butt; stroke-linejoin: miter; stroke-miterlimit: 10; fill: rgb(201,207,212); fill-rule: nonzero; opacity: 1;" transform="  matrix(1 0 0 1 0 0) "/>
	<rect x="29.49" y="78.04" rx="0" ry="0" width="40.46" height="6.65" style="stroke: none; stroke-width: 1; stroke-dasharray: none; stroke-linecap: butt; stroke-linejoin: miter; stroke-miterlimit: 10; fill: rgb(176,182,188); fill-rule: nonzero; opacity: 1;" transform=" matrix(1 0 0 1 0 0) "/>
	<path d="M 89 51.828 H 10.427 c -0.552 0 -1 -0.447 -1 -1 V 8.115 c 0 -2.099 1.708 -3.807 3.807 -3.807 h 72.959 C 88.292 4.308 90 6.016 90 8.115 v 42.713 C 90 51.381 89.553 51.828 89 51.828 z M 11.427 49.828 H 88 V 8.115 c 0 -0.997 -0.811 -1.807 -1.807 -1.807 H 13.234 c -0.997 0 -1.807 0.811 -1.807 1.807 V 49.828 z" style="stroke: none; stroke-width: 1; stroke-dasharray: none; stroke-linecap: butt; stroke-linejoin: miter; stroke-miterlimit: 10; fill: rgb(0,0,0); fill-rule: nonzero; opacity: 1;" transform=" matrix(1 0 0 1 0 0) " stroke-linecap="round" />
	<path d="M 86.193 66.296 H 13.234 c -2.099 0 -3.807 -1.708 -3.807 -3.807 V 50.828 c 0 -0.553 0.448 -1 1 -1 H 89 c 0.553 0 1 0.447 1 1 v 11.661 C 90 64.588 88.292 66.296 86.193 66.296 z M 11.427 51.828 v 10.661 c 0 0.996 0.811 1.807 1.807 1.807 h 72.959 c 0.996 0 1.807 -0.811 1.807 -1.807 V 51.828 H 11.427 z" style="stroke: none; stroke-width: 1; stroke-dasharray: none; stroke-linecap: butt; stroke-linejoin: miter; stroke-miterlimit: 10; fill: rgb(0,0,0); fill-rule: nonzero; opacity: 1;" transform=" matrix(1 0 0 1 0 0) " stroke-linecap="round" />
	<path d="M 63.26 79.042 H 36.167 c -0.295 0 -0.575 -0.13 -0.765 -0.355 s -0.271 -0.523 -0.221 -0.813 l 2.186 -12.746 c 0.083 -0.48 0.499 -0.831 0.986 -0.831 h 22.722 c 0.487 0 0.903 0.351 0.985 0.831 l 2.186 12.746 c 0.05 0.29 -0.031 0.588 -0.221 0.813 C 63.834 78.912 63.555 79.042 63.26 79.042 z M 37.353 77.042 h 24.72 l -1.842 -10.746 H 39.196 L 37.353 77.042 z" style="stroke: none; stroke-width: 1; stroke-dasharray: none; stroke-linecap: butt; stroke-linejoin: miter; stroke-miterlimit: 10; fill: rgb(0,0,0); fill-rule: nonzero; opacity: 1;" transform=" matrix(1 0 0 1 0 0) " stroke-linecap="round" />
	<path d="M 69.941 85.692 H 29.486 c -0.552 0 -1 -0.447 -1 -1 v -6.65 c 0 -0.553 0.448 -1 1 -1 h 40.456 c 0.553 0 1 0.447 1 1 v 6.65 C 70.941 85.245 70.494 85.692 69.941 85.692 z M 30.486 83.692 h 38.456 v -4.65 H 30.486 V 83.692 z" style="stroke: none; stroke-width: 1; stroke-dasharray: none; stroke-linecap: butt; stroke-linejoin: miter; stroke-miterlimit: 10; fill: rgb(0,0,0); fill-rule: nonzero; opacity: 1;" transform=" matrix(1 0 0 1 0 0) " stroke-linecap="round" />
	<path d="M 41.866 28.645 H 28.674 c -0.552 0 -1 -0.448 -1 -1 s 0.448 -1 1 -1 h 13.192 c 0.552 0 1 0.448 1 1 S 42.418 28.645 41.866 28.645 z" style="stroke: none; stroke-width: 1; stroke-dasharray: none; stroke-linecap: butt; stroke-linejoin: miter; stroke-miterlimit: 10; fill: rgb(0,0,0); fill-rule: nonzero; opacity: 1;" transform=" matrix(1 0 0 1 0 0) " stroke-linecap="round" />
	<path d="M 41.866 40.556 H 39.24 c -0.306 0 -0.595 -0.14 -0.785 -0.38 l -3.23 -4.089 h -6.551 c -0.552 0 -1 -0.448 -1 -1 s 0.448 -1 1 -1 h 7.036 c 0.306 0 0.595 0.14 0.785 0.38 l 3.23 4.089 h 2.141 c 0.552 0 1 0.448 1 1 S 42.418 40.556 41.866 40.556 z" style="stroke: none; stroke-width: 1; stroke-dasharray: none; stroke-linecap: butt; stroke-linejoin: miter; stroke-miterlimit: 10; fill: rgb(0,0,0); fill-rule: nonzero; opacity: 1;" transform=" matrix(1 0 0 1 0 0) " stroke-linecap="round" />
	<path d="M 35.709 21.203 h -7.036 c -0.552 0 -1 -0.448 -1 -1 s 0.448 -1 1 -1 h 6.551 l 3.23 -4.089 c 0.189 -0.24 0.479 -0.38 0.785 -0.38 h 2.625 c 0.552 0 1 0.448 1 1 s -0.448 1 -1 1 h -2.141 l -3.23 4.089 C 36.305 21.063 36.016 21.203 35.709 21.203 z" style="stroke: none; stroke-width: 1; stroke-dasharray: none; stroke-linecap: butt; stroke-linejoin: miter; stroke-miterlimit: 10; fill: rgb(0,0,0); fill-rule: nonzero; opacity: 1;" transform=" matrix(1 0 0 1 0 0) " stroke-linecap="round" />
	<circle cx="45.752" cy="39.552" r="3.372" style="stroke: none; stroke-width: 1; stroke-dasharray: none; stroke-linecap: butt; stroke-linejoin: miter; stroke-miterlimit: 10; fill: rgb(247,191,80); fill-rule: nonzero; opacity: 1;" transform="  matrix(1 0 0 1 0 0) "/>
	<path d="M 45.753 43.928 c -2.411 0 -4.372 -1.961 -4.372 -4.372 s 1.961 -4.372 4.372 -4.372 c 2.411 0 4.372 1.961 4.372 4.372 S 48.164 43.928 45.753 43.928 z M 45.753 37.184 c -1.308 0 -2.372 1.064 -2.372 2.372 s 1.064 2.372 2.372 2.372 c 1.308 0 2.372 -1.064 2.372 -2.372 S 47.061 37.184 45.753 37.184 z" style="stroke: none; stroke-width: 1; stroke-dasharray: none; stroke-linecap: butt; stroke-linejoin: miter; stroke-miterlimit: 10; fill: rgb(0,0,0); fill-rule: nonzero; opacity: 1;" transform=" matrix(1 0 0 1 0 0) " stroke-linecap="round" />
	<circle cx="45.752" cy="27.642" r="3.372" style="stroke: none; stroke-width: 1; stroke-dasharray: none; stroke-linecap: butt; stroke-linejoin: miter; stroke-miterlimit: 10; fill: rgb(126,198,197); fill-rule: nonzero; opacity: 1;" transform="  matrix(1 0 0 1 0 0) "/>
	<path d="M 45.753 32.017 c -2.411 0 -4.372 -1.961 -4.372 -4.372 c 0 -2.411 1.961 -4.373 4.372 -4.373 c 2.411 0 4.372 1.961 4.372 4.373 C 50.125 30.055 48.164 32.017 45.753 32.017 z M 45.753 25.272 c -1.308 0 -2.372 1.064 -2.372 2.373 s 1.064 2.372 2.372 2.372 c 1.308 0 2.372 -1.064 2.372 -2.372 S 47.061 25.272 45.753 25.272 z" style="stroke: none; stroke-width: 1; stroke-dasharray: none; stroke-linecap: butt; stroke-linejoin: miter; stroke-miterlimit: 10; fill: rgb(0,0,0); fill-rule: nonzero; opacity: 1;" transform=" matrix(1 0 0 1 0 0) " stroke-linecap="round" />
	<circle cx="45.752" cy="15.732" r="3.372" style="stroke: none; stroke-width: 1; stroke-dasharray: none; stroke-linecap: butt; stroke-linejoin: miter; stroke-miterlimit: 10; fill: rgb(241,123,123); fill-rule: nonzero; opacity: 1;" transform="  matrix(1 0 0 1 0 0) "/>
	<path d="M 45.753 20.105 c -2.411 0 -4.372 -1.961 -4.372 -4.373 c 0 -2.411 1.961 -4.372 4.372 -4.372 c 2.411 0 4.372 1.961 4.372 4.372 C 50.125 18.144 48.164 20.105 45.753 20.105 z M 45.753 13.361 c -1.308 0 -2.372 1.064 -2.372 2.372 s 1.064 2.373 2.372 2.373 c 1.308 0 2.372 -1.064 2.372 -2.373 S 47.061 13.361 45.753 13.361 z" style="stroke: none; stroke-width: 1; stroke-dasharray: none; stroke-linecap: butt; stroke-linejoin: miter; stroke-miterlimit: 10; fill: rgb(0,0,0); fill-rule: nonzero; opacity: 1;" transform=" matrix(1 0 0 1 0 0) " stroke-linecap="round" />
	<path d="M 1 37.71 l 0 -20.132 c 0 -1.968 1.595 -3.563 3.563 -3.563 l 20.132 0 c 1.968 0 3.563 1.595 3.563 3.563 l 0 20.132 c 0 1.968 -1.595 3.563 -3.563 3.563 l -20.132 0 C 2.595 41.274 1 39.678 1 37.71 z" style="stroke: none; stroke-width: 1; stroke-dasharray: none; stroke-linecap: butt; stroke-linejoin: miter; stroke-miterlimit: 10; fill: rgb(247,191,80); fill-rule: nonzero; opacity: 1;" transform=" matrix(1 0 0 1 0 0) " stroke-linecap="round" />
	<path d="M 24.695 42.274 H 4.563 C 2.047 42.274 0 40.227 0 37.71 V 17.579 c 0 -2.516 2.047 -4.563 4.563 -4.563 h 20.132 c 2.516 0 4.563 2.047 4.563 4.563 V 37.71 C 29.259 40.227 27.211 42.274 24.695 42.274 z M 4.563 15.015 C 3.15 15.015 2 16.165 2 17.579 V 37.71 c 0 1.414 1.15 2.563 2.563 2.563 h 20.132 c 1.414 0 2.563 -1.15 2.563 -2.563 V 17.579 c 0 -1.414 -1.15 -2.563 -2.563 -2.563 H 4.563 z" style="stroke: none; stroke-width: 1; stroke-dasharray: none; stroke-linecap: butt; stroke-linejoin: miter; stroke-miterlimit: 10; fill: rgb(0,0,0); fill-rule: nonzero; opacity: 1;" transform=" matrix(1 0 0 1 0 0) " stroke-linecap="round" />
	<path d="M 13.872 34.201 c -0.552 0 -1 -0.448 -1 -1 v -8.716 c 0 -0.77 -0.626 -1.396 -1.396 -1.396 H 9.37 c -0.77 0 -1.396 0.626 -1.396 1.396 v 8.716 c 0 0.552 -0.448 1 -1 1 s -1 -0.448 -1 -1 v -8.716 c 0 -1.873 1.523 -3.396 3.396 -3.396 h 2.105 c 1.873 0 3.396 1.523 3.396 3.396 v 8.716 C 14.872 33.753 14.424 34.201 13.872 34.201 z" style="stroke: none; stroke-width: 1; stroke-dasharray: none; stroke-linecap: butt; stroke-linejoin: miter; stroke-miterlimit: 10; fill: rgb(0,0,0); fill-rule: nonzero; opacity: 1;" transform=" matrix(1 0 0 1 0 0) " stroke-linecap="round" />
	<path d="M 13.872 28.645 H 6.974 c -0.552 0 -1 -0.448 -1 -1 s 0.448 -1 1 -1 h 6.897 c 0.552 0 1 0.448 1 1 S 14.424 28.645 13.872 28.645 z" style="stroke: none; stroke-width: 1; stroke-dasharray: none; stroke-linecap: butt; stroke-linejoin: miter; stroke-miterlimit: 10; fill: rgb(0,0,0); fill-rule: nonzero; opacity: 1;" transform=" matrix(1 0 0 1 0 0) " stroke-linecap="round" />
	<path d="M 20.006 34.201 c -0.552 0 -1 -0.448 -1 -1 V 22.088 c 0 -0.552 0.448 -1 1 -1 s 1 0.448 1 1 v 11.112 C 21.006 33.753 20.559 34.201 20.006 34.201 z" style="stroke: none; stroke-width: 1; stroke-dasharray: none; stroke-linecap: butt; stroke-linejoin: miter; stroke-miterlimit: 10; fill: rgb(0,0,0); fill-rule: nonzero; opacity: 1;" transform=" matrix(1 0 0 1 0 0) " stroke-linecap="round" />
	<path d="M 22.284 23.088 h -4.556 c -0.552 0 -1 -0.448 -1 -1 s 0.448 -1 1 -1 h 4.556 c 0.552 0 1 0.448 1 1 S 22.836 23.088 22.284 23.088 z" style="stroke: none; stroke-width: 1; stroke-dasharray: none; stroke-linecap: butt; stroke-linejoin: miter; stroke-miterlimit: 10; fill: rgb(0,0,0); fill-rule: nonzero; opacity: 1;" transform=" matrix(1 0 0 1 0 0) " stroke-linecap="round" />
	<path d="M 22.284 34.201 h -4.556 c -0.552 0 -1 -0.448 -1 -1 s 0.448 -1 1 -1 h 4.556 c 0.552 0 1 0.448 1 1 S 22.836 34.201 22.284 34.201 z" style="stroke: none; stroke-width: 1; stroke-dasharray: none; stroke-linecap: butt; stroke-linejoin: miter; stroke-miterlimit: 10; fill: rgb(0,0,0); fill-rule: nonzero; opacity: 1;" transform=" matrix(1 0 0 1 0 0) " stroke-linecap="round" />
	<path d="M 61.325 34.034 c -0.256 0 -0.512 -0.098 -0.707 -0.293 l -5.025 -5.026 c -0.391 -0.391 -0.391 -1.023 0 -1.414 l 5.025 -5.026 c 0.391 -0.391 1.023 -0.391 1.414 0 s 0.391 1.023 0 1.414 l -4.318 4.319 l 4.318 4.319 c 0.391 0.391 0.391 1.023 0 1.414 C 61.837 33.937 61.581 34.034 61.325 34.034 z" style="stroke: none; stroke-width: 1; stroke-dasharray: none; stroke-linecap: butt; stroke-linejoin: miter; stroke-miterlimit: 10; fill: rgb(0,0,0); fill-rule: nonzero; opacity: 1;" transform=" matrix(1 0 0 1 0 0) " stroke-linecap="round" />
	<path d="M 74.228 34.034 c -0.256 0 -0.512 -0.098 -0.707 -0.293 c -0.391 -0.391 -0.391 -1.023 0 -1.414 l 4.319 -4.319 l -4.319 -4.319 c -0.391 -0.391 -0.391 -1.023 0 -1.414 s 1.023 -0.391 1.414 0 l 5.026 5.026 c 0.188 0.188 0.293 0.442 0.293 0.707 s -0.105 0.52 -0.293 0.707 l -5.026 5.026 C 74.739 33.937 74.483 34.034 74.228 34.034 z" style="stroke: none; stroke-width: 1; stroke-dasharray: none; stroke-linecap: butt; stroke-linejoin: miter; stroke-miterlimit: 10; fill: rgb(0,0,0); fill-rule: nonzero; opacity: 1;" transform=" matrix(1 0 0 1 0 0) " stroke-linecap="round" />
	<path d="M 65.619 37.419 c -0.087 0 -0.175 -0.012 -0.263 -0.035 c -0.532 -0.145 -0.848 -0.693 -0.703 -1.227 l 4.317 -15.953 c 0.144 -0.534 0.693 -0.846 1.227 -0.704 c 0.532 0.145 0.848 0.693 0.703 1.227 L 66.583 36.68 C 66.463 37.126 66.06 37.419 65.619 37.419 z" style="stroke: none; stroke-width: 1; stroke-dasharray: none; stroke-linecap: butt; stroke-linejoin: miter; stroke-miterlimit: 10; fill: rgb(0,0,0); fill-rule: nonzero; opacity: 1;" transform=" matrix(1 0 0 1 0 0) " stroke-linecap="round" />
</g>
</svg>