<svg xmlns="http://www.w3.org/2000/svg" xmlns:xlink="http://www.w3.org/1999/xlink" version="1.1" width="256" height="256" viewBox="0 0 256 256" xml:space="preserve">

<defs>
</defs>
<g style="stroke: none; stroke-width: 0; stroke-dasharray: none; stroke-linecap: butt; stroke-linejoin: miter; stroke-miterlimit: 10; fill: none; fill-rule: nonzero; opacity: 1;" transform="translate(1.4065934065934016 1.4065934065934016) scale(2.81 2.81)" >
	<path d="M 50.495 26.17 h -6.136 v -6.178 c 0 -1.681 -1.368 -3.049 -3.049 -3.049 H 30.456 c -1.681 0 -3.049 1.368 -3.049 3.049 v 6.178 h -6.136 v -6.178 c 0 -5.065 4.121 -9.185 9.186 -9.185 H 41.31 c 5.065 0 9.186 4.12 9.186 9.185 V 26.17 z" style="stroke: none; stroke-width: 1; stroke-dasharray: none; stroke-linecap: butt; stroke-linejoin: miter; stroke-miterlimit: 10; fill: rgb(201,118,41); fill-rule: nonzero; opacity: 1;" transform=" matrix(1 0 0 1 0 0) " stroke-linecap="round" />
	<path d="M 65.615 79.194 H 6.15 c -3.397 0 -6.15 -2.753 -6.15 -6.15 V 31.297 c 0 -3.397 2.753 -6.15 6.15 -6.15 h 59.465 c 3.397 0 6.15 2.753 6.15 6.15 v 41.746 C 71.765 76.44 69.012 79.194 65.615 79.194 z" style="stroke: none; stroke-width: 1; stroke-dasharray: none; stroke-linecap: butt; stroke-linejoin: miter; stroke-miterlimit: 10; fill: rgb(176,99,40); fill-rule: nonzero; opacity: 1;" transform=" matrix(1 0 0 1 0 0) " stroke-linecap="round" />
	<polygon points="44.51,57.55 35.88,63.12 27.25,57.55 27.25,45.25 44.51,45.25 " style="stroke: none; stroke-width: 1; stroke-dasharray: none; stroke-linecap: butt; stroke-linejoin: miter; stroke-miterlimit: 10; fill: rgb(255,209,91); fill-rule: nonzero; opacity: 1;" transform="  matrix(1 0 0 1 0 0) "/>
	<path d="M 65.615 25.147 H 6.15 c -3.397 0 -6.15 2.753 -6.15 6.15 V 52.17 h 27.255 v -6.916 H 44.51 v 6.916 h 27.255 V 31.297 C 71.765 27.901 69.012 25.147 65.615 25.147 z" style="stroke: none; stroke-width: 1; stroke-dasharray: none; stroke-linecap: butt; stroke-linejoin: miter; stroke-miterlimit: 10; fill: rgb(201,118,41); fill-rule: nonzero; opacity: 1;" transform=" matrix(1 0 0 1 0 0) " stroke-linecap="round" />
	<circle cx="73.31700000000001" cy="52.167" r="16.687" style="stroke: none; stroke-width: 1; stroke-dasharray: none; stroke-linecap: butt; stroke-linejoin: miter; stroke-miterlimit: 10; fill: rgb(255,209,91); fill-rule: nonzero; opacity: 1;" transform="  matrix(1 0 0 1 0 0) "/>
	<path d="M 80.103 59.2 c -0.236 0 -0.474 -0.083 -0.664 -0.252 l -6.789 -6.029 c -0.214 -0.19 -0.336 -0.462 -0.336 -0.748 v -9.939 c 0 -0.552 0.447 -1 1 -1 s 1 0.448 1 1 v 9.49 l 6.453 5.73 c 0.413 0.367 0.45 0.999 0.084 1.412 C 80.652 59.087 80.378 59.2 80.103 59.2 z" style="stroke: none; stroke-width: 1; stroke-dasharray: none; stroke-linecap: butt; stroke-linejoin: miter; stroke-miterlimit: 10; fill: rgb(176,99,40); fill-rule: nonzero; opacity: 1;" transform=" matrix(1 0 0 1 0 0) " stroke-linecap="round" />
</g>
</svg>